<svg xmlns="http://www.w3.org/2000/svg" viewBox="0 0 1875.399896 511.290093" fill="none" role="img" aria-label="Tesla car line illustration">
<g transform="translate(-82.140029,702.354482) scale(0.100000,-0.100000)" fill="#000000" stroke="none">
<path d="M11550 7015 c-477 -20 -855 -47 -930 -66 -37 -9 -150 -113 -137 -126
4 -4 114 3 245 15 665 62 1230 75 1987 45 l169 -6 28 -31 c16 -18 24 -34 19
-39 -5 -5 -54 -4 -118 4 -157 20 -955 17 -1248 -5 -268 -20 -458 -38 -705 -66
-335 -37 -436 -38 -507 -2 -23 12 -45 27 -49 33 -10 16 15 29 59 29 21 0 50 6
65 14 28 14 112 103 112 118 0 11 -53 10 -121 -1 -30 -5 -94 -14 -144 -21 -49
-6 -128 -18 -174 -26 -46 -8 -85 -14 -87 -14 -2 0 -4 -6 -4 -14 0 -7 21 -32
46 -56 33 -31 51 -40 67 -36 12 3 41 8 63 12 39 6 43 4 68 -29 15 -19 40 -40
56 -47 31 -13 37 -24 19 -35 -15 -10 -31 -57 -22 -66 4 -4 26 -3 48 2 22 6 76
14 120 19 44 4 136 15 205 24 215 28 306 38 585 65 475 46 1098 65 1388 41
296 -24 667 -62 970 -100 182 -23 237 -30 317 -40 47 -6 136 -17 198 -25 108
-14 211 -19 185 -8 -7 2 -13 12 -13 21 0 10 -4 22 -8 28 -4 7 -83 21 -177 33
-93 12 -205 26 -247 31 -166 21 -230 29 -488 60 -41 5 -127 15 -190 21 -67 7
-130 20 -150 30 -34 17 -80 54 -80 65 0 7 203 -2 365 -16 61 -5 169 -14 240
-20 203 -16 423 -44 645 -80 69 -12 161 -25 205 -30 44 -4 100 -14 124 -20 38
-12 45 -11 53 3 13 24 41 22 33 -2 -5 -17 3 -21 62 -35 81 -18 271 -59 403
-87 347 -74 1026 -245 1225 -309 72 -23 157 -50 190 -60 33 -10 94 -29 135
-42 41 -14 122 -40 180 -58 206 -64 359 -114 648 -210 l292 -98 25 20 c47 37
101 13 -517 232 -147 52 -659 226 -898 306 -123 41 -306 95 -435 130 -44 12
-104 28 -132 36 -29 8 -77 20 -105 28 -29 8 -89 25 -133 37 -82 22 -94 25
-230 53 -44 9 -126 28 -182 41 -218 53 -310 74 -368 84 -33 6 -127 24 -210 40
-251 47 -295 54 -301 48 -4 -3 3 -18 15 -33 35 -44 14 -41 -33 6 -52 51 -51
50 -471 100 -620 73 -1635 112 -2245 85z m-1140 -346 c0 -5 -9 -9 -20 -9 -22
0 -27 16 -7 23 15 5 27 -1 27 -14z"/>
<path d="M9929 6856 c-3 -3 -31 -9 -64 -15 -129 -22 -385 -81 -590 -135 -195
-52 -569 -173 -765 -248 -126 -48 -581 -229 -735 -292 -181 -75 -835 -409
-835 -427 0 -21 62 -79 84 -79 11 0 71 28 135 61 321 170 535 275 721 354 113
48 219 93 235 100 76 34 236 95 490 187 61 22 133 48 160 58 28 10 79 27 115
39 36 11 106 34 155 50 154 49 225 70 370 106 147 37 569 125 602 125 11 0 28
6 38 14 18 13 16 16 -30 60 -44 41 -73 55 -86 42z"/>
<path d="M12020 6730 c-41 -4 -131 -8 -199 -9 -69 0 -177 -6 -240 -11 -109
-10 -153 -15 -341 -40 -41 -5 -113 -14 -160 -20 -94 -12 -201 -26 -300 -40
-36 -5 -110 -14 -165 -21 -259 -31 -270 -33 -273 -57 -4 -26 -15 -28 -32 -7
-21 25 -50 19 -50 -10 0 -30 -15 -33 -30 -5 -8 15 -17 18 -43 14 -17 -3 -39
-8 -47 -11 -8 -4 -23 -5 -32 -4 -79 10 -707 -195 -1033 -337 -461 -200 -693
-315 -1155 -571 -489 -272 -530 -296 -530 -312 0 -17 28 -9 101 32 41 22 146
74 234 114 88 40 194 89 235 108 41 19 127 58 190 87 63 29 142 65 175 80 33
15 112 51 175 80 63 29 142 65 175 80 81 37 266 122 340 155 33 15 128 59 210
97 219 101 388 158 675 229 84 20 116 35 154 71 30 28 53 19 24 -10 -9 -9 -3
-12 26 -12 21 0 55 4 75 9 20 6 71 15 114 22 68 10 77 14 72 30 -8 23 -6 23
31 5 30 -14 28 -14 244 13 212 28 822 81 919 81 40 0 43 -2 38 -22 -3 -13 -68
-185 -145 -383 -196 -508 -205 -532 -198 -550 3 -9 13 -15 22 -13 18 3 54 89
209 498 149 395 190 499 201 509 5 5 63 11 129 13 l120 3 -1 -50 c0 -43 -11
-116 -54 -352 -6 -29 -15 -79 -20 -110 -6 -32 -15 -83 -20 -113 -5 -30 -19
-107 -30 -170 -12 -63 -25 -137 -30 -165 -25 -141 -42 -233 -56 -312 -9 -49
-18 -112 -21 -141 -5 -51 -4 -54 36 -94 l42 -41 97 7 c53 3 246 17 427 31 182
14 398 30 480 35 83 6 161 13 174 16 29 6 141 111 141 132 0 13 -15 14 -102 8
-57 -4 -184 -11 -283 -16 -99 -4 -350 -18 -558 -31 -319 -19 -380 -20 -387 -9
-5 8 -7 17 -5 20 2 3 13 61 25 130 95 548 133 766 165 945 9 50 21 118 26 153
15 105 4 99 203 107 175 7 621 -6 831 -25 296 -27 345 -32 410 -40 39 -4 117
-14 175 -20 58 -7 165 -20 239 -31 74 -10 147 -19 164 -19 33 0 86 -48 108
-100 14 -31 43 -40 52 -16 3 8 -5 34 -19 57 -40 72 -48 89 -41 95 7 7 77 -34
77 -44 0 -4 9 -18 20 -32 l19 -25 45 44 c44 43 78 52 41 11 -25 -28 -11 -39
61 -50 32 -5 113 -18 179 -30 178 -31 195 -33 195 -23 0 5 -17 26 -38 46 -39
38 -74 51 -212 76 -36 7 -83 16 -105 21 -22 5 -94 19 -160 30 -66 12 -138 25
-160 30 -22 5 -71 14 -110 20 -38 6 -83 13 -100 16 -16 3 -60 10 -97 15 -104
14 -195 26 -283 39 -44 6 -116 15 -160 21 -44 6 -114 15 -155 20 -315 40 -954
68 -1140 49z"/>
<path d="M10010 6610 c-14 -5 -86 -23 -160 -41 -217 -50 -401 -115 -905 -317
-609 -244 -1676 -719 -1725 -768 -18 -18 -3 -47 26 -52 11 -1 117 45 237 103
119 58 219 105 221 105 2 0 37 15 78 34 207 96 643 286 798 348 41 16 93 38
115 48 22 10 189 78 370 150 477 191 711 269 928 311 73 14 83 21 89 59 2 21
-1 25 -22 27 -14 1 -36 -3 -50 -7z"/>
<path d="M14397 6593 c-13 -12 -7 -22 9 -16 11 4 22 -1 30 -12 8 -10 14 -13
14 -7 0 17 25 15 40 -3 16 -19 50 -20 50 -1 0 23 -47 46 -93 46 -24 0 -47 -3
-50 -7z"/>
<path d="M14564 6589 c-9 -16 16 -59 38 -63 43 -8 223 -38 283 -47 33 -5 83
-13 110 -19 28 -6 70 -15 95 -20 79 -14 240 -59 405 -111 489 -156 607 -194
675 -216 41 -14 89 -29 105 -33 17 -5 163 -54 325 -110 162 -55 360 -123 440
-150 80 -26 237 -80 349 -119 192 -67 206 -70 228 -56 31 21 29 43 -4 56 -98
38 -1033 356 -1348 459 -82 26 -184 60 -225 73 -135 45 -467 148 -535 167 -16
5 -55 15 -85 23 -255 70 -424 113 -500 125 -212 36 -349 52 -356 41z"/>
<path d="M14720 6412 c0 -12 83 -88 105 -96 11 -4 38 -11 60 -16 135 -27 205
-41 240 -50 58 -13 213 -49 265 -62 107 -25 264 -73 380 -115 69 -25 172 -62
230 -83 148 -53 182 -68 176 -79 -7 -10 -171 -104 -271 -154 -64 -32 -179 -71
-327 -112 -69 -19 -77 -30 -49 -58 l21 -21 72 18 c75 19 314 116 403 162 28
15 88 51 135 82 99 64 123 67 215 26 49 -21 381 -143 515 -188 25 -8 83 -29
130 -46 139 -52 323 -110 345 -109 13 0 5 6 -20 16 -22 8 -55 22 -73 30 -39
17 -259 101 -582 223 -129 48 -383 147 -565 220 -449 179 -494 194 -865 290
-69 18 -147 39 -175 46 -42 12 -352 84 -362 84 -2 0 -3 -4 -3 -8z"/>
<path d="M14247 6393 c-12 -12 -7 -42 12 -75 61 -108 236 -403 385 -652 102
-170 118 -212 79 -204 -17 3 -45 48 -284 447 -74 123 -146 245 -161 270 -15
25 -40 68 -55 94 -27 48 -54 59 -61 24 -4 -20 7 -40 318 -562 45 -77 92 -155
102 -174 11 -19 30 -50 44 -70 30 -44 30 -59 2 -66 -117 -25 -293 -48 -438
-56 -228 -12 -629 -37 -800 -49 -74 -5 -157 -9 -183 -10 -46 0 -53 -4 -113
-62 -35 -33 -64 -67 -64 -75 0 -17 18 -17 322 7 139 11 323 24 408 30 421 29
735 78 1057 162 l238 62 285 3 c169 1 286 6 288 11 1 5 -4 17 -13 26 -13 13
-39 16 -133 16 -64 0 -123 4 -131 9 -15 10 -7 12 112 42 53 13 65 41 23 60
-26 12 -86 0 -454 -88 -190 -46 -193 -46 -211 -27 -14 15 -161 256 -207 339
-6 11 -55 95 -110 186 -54 91 -128 216 -164 277 -61 104 -77 122 -93 105z"/>
<path d="M17829 5829 c-11 -11 -19 -25 -17 -31 4 -12 93 -44 508 -184 273 -91
393 -123 560 -148 111 -16 320 -41 433 -52 39 -4 66 -11 64 -17 -4 -14 -420
-132 -531 -152 -94 -16 -173 -19 -201 -9 -14 6 -11 10 14 20 65 27 34 59 -115
115 -237 90 -839 299 -859 299 -25 0 -45 -18 -45 -41 0 -12 82 -45 353 -140
361 -127 404 -151 194 -110 -266 52 -404 70 -443 57 -12 -3 -57 2 -100 13 -50
12 -99 17 -132 13 -83 -8 -99 -52 -19 -52 41 0 219 -35 512 -100 77 -17 165
-36 195 -42 87 -17 87 -31 0 -24 -76 6 -364 19 -715 32 -166 6 -194 5 -222
-10 -34 -17 -58 -50 -48 -66 4 -6 77 -10 178 -10 255 -1 839 -18 990 -30 209
-16 362 -38 423 -61 31 -12 52 -25 47 -29 -4 -4 -75 -10 -158 -13 -219 -7
-338 -42 -606 -179 -162 -82 -268 -157 -295 -210 -20 -38 -20 -117 0 -156 8
-16 32 -38 53 -48 36 -18 77 -19 840 -22 l802 -2 17 25 c14 21 16 40 10 104
-16 191 -97 392 -180 447 -38 24 -151 53 -292 73 -123 18 -244 55 -251 76 -2
6 46 20 107 33 110 22 335 85 505 141 50 16 93 27 96 25 3 -2 9 -86 13 -186 4
-101 13 -243 22 -316 10 -95 12 -138 4 -152 -9 -17 -8 -20 9 -20 29 0 31 9 21
81 -19 138 -31 514 -19 583 6 37 8 70 5 73 -3 4 -90 17 -194 29 -326 39 -504
64 -595 84 -98 21 -318 93 -597 195 -102 37 -216 78 -253 91 l-68 23 -20 -20z
m1410 -838 c61 -12 90 -37 133 -117 52 -95 88 -224 88 -313 0 -38 0 -38 -46
-45 -79 -10 -663 -7 -685 4 -17 10 -19 22 -19 118 1 208 27 298 93 319 103 34
340 52 436 34z m-519 -6 c0 -3 -8 -22 -19 -43 -30 -60 -41 -129 -44 -274 -2
-75 -5 -140 -9 -143 -7 -8 -743 -6 -763 1 -9 4 -22 19 -31 35 -13 25 -13 32 0
57 37 70 155 148 373 247 129 58 259 100 358 114 72 10 135 13 135 6z"/>
<path d="M6765 5667 c-66 -34 -253 -135 -415 -225 l-296 -162 -99 -10 c-55 -5
-194 -19 -310 -30 -115 -11 -232 -22 -260 -25 -27 -3 -102 -10 -165 -15 -63
-5 -212 -19 -330 -30 -118 -11 -219 -20 -224 -20 -12 0 -166 -151 -166 -163 0
-6 24 -7 63 -3 343 37 690 68 917 80 357 20 685 36 733 36 43 0 42 -15 0 -23
-16 -3 -55 -10 -88 -16 -128 -24 -278 -40 -480 -50 -474 -25 -594 -32 -670
-41 -44 -5 -125 -14 -180 -20 -55 -6 -127 -15 -160 -20 -33 -5 -99 -14 -147
-21 -68 -9 -92 -17 -108 -35 -12 -12 -17 -25 -12 -28 5 -3 54 1 108 9 305 44
650 74 1099 95 384 19 661 62 831 130 l78 31 295 10 c162 5 298 6 302 2 4 -4
-21 -39 -55 -76 -35 -38 -78 -98 -96 -135 -18 -37 -37 -70 -42 -73 -6 -4 -11
-28 -13 -55 -2 -27 -10 -80 -19 -119 -9 -38 -19 -122 -23 -185 -3 -63 -10
-121 -16 -127 -7 -10 -53 -13 -166 -13 -259 0 -302 -9 -463 -90 -77 -39 -150
-70 -167 -70 -29 0 -80 47 -174 162 -54 66 -54 67 53 87 87 16 224 23 529 30
255 5 285 8 295 24 8 12 8 22 0 35 -10 15 -39 17 -320 20 -419 3 -607 -18
-660 -75 -47 -51 -27 -107 88 -239 29 -33 73 -76 97 -95 37 -28 53 -34 95 -34
42 0 66 8 141 50 180 100 254 116 520 114 99 0 187 2 195 5 8 3 112 10 230 16
564 28 633 32 1120 60 401 24 522 30 705 40 105 5 269 14 365 20 96 6 256 15
355 20 99 6 259 15 355 20 96 6 274 14 395 20 121 5 294 14 385 20 91 6 246
15 345 20 99 6 259 14 355 20 96 5 263 14 370 20 107 6 272 15 365 20 94 6
253 15 355 20 395 21 562 30 735 40 382 23 514 31 635 36 69 4 130 11 135 16
10 11 -73 9 -625 -12 -140 -5 -347 -14 -460 -20 -113 -5 -306 -14 -430 -20
-124 -5 -319 -14 -435 -20 -115 -6 -300 -15 -410 -20 -110 -5 -297 -14 -415
-20 -118 -5 -314 -15 -435 -20 -121 -5 -312 -15 -425 -20 -113 -6 -302 -15
-420 -20 -118 -5 -395 -19 -615 -30 -220 -12 -499 -25 -620 -30 -321 -14 -632
-28 -865 -40 -885 -46 -1062 -52 -1072 -38 -12 17 0 203 17 282 31 136 46 176
66 176 6 0 8 9 4 19 -8 28 34 106 91 170 28 31 105 91 183 144 143 95 156 106
141 121 -10 10 -58 -13 -135 -64 -39 -26 -45 -26 -212 -29 -95 -1 -173 0 -173
2 0 10 148 102 254 158 123 64 142 88 92 110 -21 10 -38 4 -133 -46 -59 -32
-139 -78 -177 -104 l-70 -46 -190 2 c-193 1 -276 10 -278 28 -1 10 112 71 454
247 98 49 183 97 189 105 10 11 5 22 -26 53 -22 22 -46 40 -55 40 -8 -1 -69
-29 -135 -63z m-400 -472 c65 -8 126 -15 135 -16 8 0 3 -4 -13 -9 -23 -7 -271
-15 -347 -10 -22 1 -19 4 20 25 54 29 53 29 205 10z"/>
<path d="M11231 5566 c-10 -11 -88 -209 -143 -358 -5 -14 -17 -29 -26 -33 -9
-3 -327 -17 -707 -30 -379 -13 -787 -29 -905 -34 -118 -6 -323 -13 -455 -16
-197 -5 -244 -9 -265 -22 -34 -22 -61 -54 -57 -67 3 -8 183 -11 598 -9 1112 2
2431 43 2464 74 7 7 -6 25 -36 54 l-46 43 -256 -6 c-234 -4 -257 -3 -257 11 0
9 29 94 65 189 42 110 64 181 60 196 -6 25 -17 28 -34 8z"/>
<path d="M15650 5476 c0 -43 19 -44 1022 -51 653 -4 718 -3 733 11 9 10 13 20
7 26 -12 12 -717 27 -1284 28 -400 0 -478 -2 -478 -14z"/>
<path d="M16242 5290 c-315 -17 -353 -21 -359 -38 -4 -9 4 -24 21 -39 l27 -23
615 0 615 0 42 39 c70 66 73 66 -401 67 -229 1 -482 -2 -560 -6z"/>
<path d="M15565 5235 c-187 -22 -232 -28 -375 -54 -63 -11 -172 -40 -179 -46
-11 -12 11 -12 114 1 185 22 331 34 538 43 220 10 242 16 192 57 -36 28 -31
28 -290 -1z"/>
<path d="M4320 5104 c-107 -18 -224 -38 -260 -44 -36 -6 -90 -15 -120 -20 -30
-5 -84 -14 -120 -19 -53 -9 -203 -39 -383 -78 -44 -9 -43 -28 4 -78 48 -51 55
-53 174 -30 205 40 448 80 665 110 63 9 126 18 139 21 28 6 171 141 171 161 0
19 -50 15 -270 -23z"/>
<path d="M8560 5083 c-36 -2 -253 -10 -484 -17 -285 -10 -422 -18 -430 -26 -8
-8 -4 -18 17 -36 l28 -24 397 0 c497 0 522 2 568 46 19 19 34 38 34 43 0 11
-26 22 -48 19 -9 -1 -46 -3 -82 -5z"/>
<path d="M7324 5041 c-226 -6 -260 -13 -247 -47 4 -12 51 -14 277 -14 150 0
276 3 279 6 12 12 -13 42 -44 53 -18 6 -35 10 -38 9 -3 -1 -105 -4 -227 -7z"/>
<path d="M3250 4900 c-41 -11 -95 -24 -120 -29 -290 -67 -613 -146 -705 -173
-265 -77 -572 -185 -723 -254 -29 -13 -54 -24 -56 -24 -2 0 -79 -36 -170 -80
-92 -44 -169 -80 -171 -80 -9 0 -184 -105 -219 -132 -70 -53 -156 -142 -156
-160 0 -33 18 -27 71 22 88 82 193 147 384 240 260 126 372 172 635 260 124
41 166 53 365 100 72 17 146 35 166 40 89 24 74 2 -21 -30 -92 -31 -286 -105
-345 -131 -27 -12 -74 -32 -103 -45 -29 -13 -55 -24 -58 -24 -7 0 -230 -112
-334 -168 -163 -87 -274 -153 -319 -191 -51 -42 -345 -231 -360 -231 -5 0 -18
12 -29 27 -27 37 -47 22 -26 -19 18 -36 19 -35 -68 -92 l-63 -41 -3 -61 c-2
-47 1 -66 14 -78 26 -26 44 -3 44 58 0 50 1 52 50 84 27 17 56 32 64 32 8 0
50 -56 94 -124 74 -115 106 -147 131 -132 4 3 100 23 212 45 488 95 701 145
554 128 -73 -8 -133 -18 -635 -107 -63 -11 -125 -20 -136 -20 -31 0 -177 228
-160 249 10 13 57 45 150 101 l39 24 -6 -32 c-5 -27 -2 -35 19 -48 21 -14 42
-16 127 -11 56 4 134 16 172 27 39 11 106 23 150 26 l80 6 50 -41 c27 -22 63
-44 80 -47 17 -3 80 2 140 10 282 40 443 114 770 357 50 36 144 103 209 148
118 80 120 81 181 81 56 0 202 -18 280 -35 92 -19 215 -62 215 -75 0 -4 -71
-25 -157 -48 -193 -49 -393 -119 -401 -140 -9 -25 49 -126 76 -130 12 -2 22
-6 22 -9 0 -3 -33 -40 -74 -83 -40 -42 -96 -110 -123 -151 -51 -75 -113 -190
-113 -209 0 -27 25 -1 91 93 40 56 105 135 146 175 62 61 78 72 107 72 28 0
40 7 67 42 19 23 70 75 114 117 44 42 111 106 149 143 39 37 72 65 75 62 3 -2
-22 -31 -54 -64 -32 -33 -56 -62 -52 -66 3 -3 21 -1 39 5 34 13 63 18 228 46
52 8 119 20 149 25 30 6 73 10 95 10 50 0 86 9 86 21 0 6 -16 25 -35 45 -19
19 -35 40 -35 46 0 7 25 -12 55 -42 l55 -55 218 -7 c258 -8 393 -22 562 -59
124 -28 315 -86 359 -111 46 -26 186 -135 257 -201 78 -72 198 -224 248 -314
23 -42 48 -79 55 -81 19 -6 6 29 -49 134 -63 118 -150 240 -250 346 -44 47
-80 91 -80 97 0 7 10 30 21 53 l21 42 -22 18 c-23 19 -235 90 -375 126 -110
29 -397 98 -470 114 -82 17 -486 17 -580 0 -84 -15 -154 -27 -255 -42 l-75
-12 -58 35 c-70 42 -121 60 -257 86 -171 32 -257 41 -405 41 -79 0 -135 4
-130 9 6 4 53 18 105 30 52 12 114 26 138 31 23 6 61 14 85 20 145 33 416 80
647 110 175 23 213 34 218 64 4 17 -1 18 -54 12 -33 -4 -90 -12 -129 -17 -38
-5 -115 -13 -170 -19 -68 -7 -104 -16 -112 -26 -9 -13 -15 -13 -34 -4 -22 13
-28 12 -244 -22 -38 -6 -108 -19 -155 -29 -47 -11 -107 -24 -135 -30 -27 -5
-69 -14 -92 -19 -75 -17 -126 -28 -188 -40 -82 -17 -116 -30 -141 -56 -16 -17
-38 -24 -90 -29 -38 -3 -91 -10 -117 -16 -51 -10 -144 -12 -135 -4 12 12 456
136 713 199 168 42 282 68 390 91 101 22 120 31 104 51 -13 16 -71 19 -115 5
-16 -5 -74 -19 -129 -31 -106 -24 -443 -108 -535 -134 -30 -8 -89 -25 -130
-37 -41 -11 -88 -25 -105 -29 -16 -5 -75 -22 -130 -38 -241 -73 -278 -83 -283
-78 -2 3 4 8 14 12 10 3 38 15 61 25 24 10 49 19 56 19 7 0 17 4 22 9 10 9
270 107 380 143 167 55 330 101 525 148 244 58 263 64 267 76 6 17 -89 104
-112 103 -11 0 -54 -9 -95 -19z m-332 -540 c-8 -24 -513 -368 -524 -357 -2 2
27 26 64 53 75 55 206 166 239 204 27 31 29 57 5 64 -23 8 -266 -19 -404 -44
-32 -5 -82 -14 -110 -19 -112 -20 -331 -73 -453 -111 -38 -12 -78 -24 -87 -27
-29 -9 -20 4 19 28 20 13 57 26 82 30 26 4 100 22 166 41 66 19 145 40 175 47
30 7 73 16 95 21 38 8 89 17 223 40 68 11 279 30 377 34 39 1 85 3 103 4 19 1
32 -2 30 -8z m122 -3 c-40 -37 -432 -320 -475 -343 -11 -6 -37 -21 -59 -33
-57 -33 -54 -19 6 22 29 20 97 67 150 104 53 38 132 92 175 122 43 30 102 73
132 97 29 24 60 44 69 44 14 0 14 -2 2 -13z m-430 -104 c-1 -9 -169 -143 -232
-185 -77 -52 -72 -28 12 60 128 134 126 132 176 132 24 0 44 -3 44 -7z m-200
-21 c0 -21 -182 -183 -250 -222 -91 -53 -266 -97 -417 -104 -55 -3 -144 -16
-203 -30 -58 -14 -133 -29 -167 -32 -79 -8 -83 7 -16 65 120 106 422 215 803
290 58 11 125 25 150 30 59 12 100 13 100 3z m-42 -317 c-8 -8 -115 -45 -173
-60 -60 -15 -177 -29 -130 -15 33 9 172 47 223 60 19 4 36 11 39 14 4 3 15 6
26 6 11 0 18 -2 15 -5z"/>
<path d="M4280 4883 c-19 -3 -100 -16 -180 -29 -80 -14 -170 -29 -200 -34 -89
-14 -310 -59 -320 -65 -13 -8 -2 -32 18 -40 9 -3 54 1 101 10 47 9 120 23 161
31 41 7 156 27 254 44 99 17 190 37 203 45 24 16 32 46 11 43 -7 0 -29 -3 -48
-5z"/>
<path d="M5969 4816 c-2 -3 -193 -10 -424 -16 -521 -14 -830 -27 -915 -39 -68
-9 -205 -26 -328 -40 -69 -8 -122 -30 -122 -51 0 -14 16 -13 213 10 336 39
453 48 917 70 479 22 640 31 746 40 60 6 157 10 215 11 57 0 113 4 124 9 12 5
-68 9 -201 9 -121 1 -223 -1 -225 -3z"/>
<path d="M15585 4549 c-475 -87 -718 -195 -957 -427 -141 -137 -224 -259 -318
-467 l-36 -80 -55 -5 -54 -5 -3 -448 -2 -449 62 -64 c71 -74 71 -101 0 -31
-26 26 -51 47 -55 47 -4 0 -7 -112 -7 -250 0 -137 2 -250 5 -250 3 0 29 23 57
50 73 72 73 52 0 -24 -58 -60 -79 -106 -49 -106 34 -1 506 -2 535 -1 17 1 32
6 32 12 0 5 -40 49 -90 97 -49 47 -90 93 -90 102 0 8 51 -36 114 -99 l113
-113 383 1 382 2 52 33 c28 18 66 49 84 70 38 43 92 147 92 176 0 20 -2 20
-627 18 l-628 -3 3 -22 c4 -28 -18 -41 -25 -15 -2 11 -16 25 -29 31 -33 15
-114 14 -114 0 0 -12 -29 -38 -43 -39 -5 0 -5 5 -2 10 3 6 -5 14 -19 20 -33
12 -33 34 0 82 27 38 58 53 129 60 l30 3 3 540 c3 616 11 565 -89 565 -32 0
-60 3 -63 8 -6 10 86 170 146 254 70 97 139 169 236 246 250 199 503 309 852
371 96 17 307 34 335 27 15 -4 75 -11 132 -16 195 -17 419 -83 612 -180 67
-34 126 -60 131 -58 5 2 -9 22 -31 45 -29 31 -39 48 -34 63 5 16 -4 24 -54 50
-152 76 -316 125 -565 170 -71 12 -411 11 -481 -1z m-1138 -2259 c7 -11 9 -21
3 -25 -9 -6 -13 -1 -23 28 -9 23 5 22 20 -3z"/>
<path d="M16700 4327 c0 -14 520 -530 527 -523 18 17 -167 260 -263 346 -110
99 -264 202 -264 177z"/>
<path d="M4010 4064 c-14 -2 -65 -9 -115 -15 -119 -14 -337 -66 -400 -94 -28
-13 -80 -53 -118 -90 -58 -57 -66 -69 -56 -86 21 -40 203 -159 243 -159 7 0
24 21 37 47 13 27 38 57 56 69 44 30 141 48 257 48 l100 1 11 -50 c7 -27 18
-81 24 -120 7 -38 17 -92 22 -120 11 -60 46 -256 60 -340 6 -33 14 -78 19
-100 4 -22 13 -71 20 -110 6 -38 15 -90 20 -115 5 -25 14 -74 20 -110 14 -80
29 -161 40 -220 5 -25 14 -74 20 -110 12 -73 25 -142 39 -215 5 -27 15 -81 21
-120 24 -144 42 -181 53 -108 3 21 11 65 17 98 11 58 17 93 39 220 5 33 15 86
21 118 12 70 24 135 44 250 9 48 23 126 32 175 21 120 32 182 45 250 5 31 14
80 19 107 13 77 50 284 61 340 5 28 12 77 15 110 l6 60 -105 103 c-66 64 -110
100 -118 96 -8 -3 -30 -25 -49 -49 -19 -24 -37 -44 -40 -44 -11 -1 -29 18
-124 134 -54 66 -107 128 -118 138 -19 16 -56 20 -118 11z"/>
<path d="M4547 3990 c-52 -63 -65 -85 -58 -98 20 -35 189 -194 200 -188 6 4
11 17 11 30 0 12 6 30 13 39 11 16 24 17 142 8 194 -14 240 -34 276 -118 10
-25 25 -43 34 -43 64 0 315 194 302 233 -19 57 -509 194 -766 213 l-87 7 -67
-83z"/>
<path d="M6400 3555 c-11 -13 -8 -26 16 -76 37 -79 106 -149 185 -190 60 -31
71 -33 187 -37 67 -2 134 -1 149 3 35 8 313 282 306 301 -4 12 -74 14 -418 14
-360 0 -414 -2 -425 -15z"/>
<path d="M7275 3552 c-38 -24 -270 -268 -270 -285 0 -8 28 -14 90 -17 l90 -5
5 -597 c3 -328 9 -600 13 -605 10 -9 283 -10 292 -1 4 3 6 268 6 588 -1 371 3
588 9 600 9 17 28 19 268 22 l257 4 64 36 c114 64 207 179 199 246 l-3 27
-495 3 c-469 2 -497 1 -525 -16z"/>
<path d="M9068 3563 c-10 -3 -18 -13 -18 -23 0 -47 215 -263 280 -280 26 -7
236 -10 612 -8 l573 3 57 29 c69 34 148 109 188 179 33 58 38 92 14 101 -18 7
-1678 6 -1706 -1z"/>
<path d="M11668 3563 c-9 -2 -18 -14 -21 -26 -8 -31 -8 -842 -1 -861 6 -14 73
-16 674 -16 557 0 669 -2 679 -14 8 -9 11 -59 9 -152 l-3 -139 -545 -5 -545
-5 -65 -33 c-95 -48 -195 -126 -240 -189 -69 -97 -155 -88 822 -85 475 1 869
4 876 7 10 3 12 100 10 457 l-3 453 -670 3 c-448 1 -673 6 -680 13 -13 13 -17
247 -4 271 9 16 46 18 537 20 l527 3 68 32 c76 36 182 133 193 177 9 36 0 52
-38 76 -32 19 -49 20 -798 19 -421 -1 -772 -3 -782 -6z"/>
<path d="M16418 3563 c-46 -5 -49 -22 -14 -91 36 -70 120 -150 196 -186 l65
-31 500 -3 c482 -3 545 -1 545 16 0 11 -249 264 -280 285 -22 15 -70 17 -500
15 -261 -1 -492 -3 -512 -5z"/>
<path d="M17473 3554 c-4 -11 31 -52 123 -146 174 -174 178 -176 290 -132 117
47 243 191 232 266 l-3 23 -318 3 c-286 2 -318 1 -324 -14z"/>
<path d="M9054 2960 c-30 -30 42 -151 131 -224 88 -73 105 -76 401 -76 196 0
264 3 264 12 0 6 -63 75 -140 152 l-139 141 -253 3 c-180 2 -256 0 -264 -8z"/>
<path d="M9614 2959 c-4 -7 54 -72 137 -155 l144 -144 300 0 c171 0 306 4 315
10 38 23 270 267 270 283 0 16 -34 17 -579 17 -414 0 -582 -3 -587 -11z"/>
<path d="M16420 2500 l0 -460 150 0 150 0 0 294 c0 207 3 297 11 302 17 10
734 16 904 7 l150 -8 5 -295 5 -295 50 -7 c67 -9 238 2 247 16 13 19 10 804
-3 829 -6 12 -23 34 -37 50 l-26 27 -803 0 -803 0 0 -460z"/>
<path d="M10714 2838 c-55 -43 -137 -132 -125 -136 18 -6 71 35 120 91 55 64
57 85 5 45z"/>
<path d="M9053 2339 c-38 -38 98 -223 199 -273 l53 -26 294 -1 294 0 73 72
c40 40 77 70 81 66 4 -4 -20 -34 -52 -67 -32 -33 -56 -62 -54 -65 9 -8 507
-13 520 -5 17 11 -1 37 -70 103 -34 31 -61 62 -61 68 0 16 15 3 88 -72 98
-102 103 -104 154 -78 92 46 183 144 212 227 14 40 14 42 -5 53 -14 7 -102 9
-266 7 -238 -3 -246 -4 -270 -25 -17 -17 -36 -23 -67 -23 -34 0 -47 -5 -62
-25 -23 -30 -30 -31 -37 -5 -3 11 -12 20 -20 20 -10 0 -17 11 -19 28 l-3 27
-485 3 c-346 1 -489 -1 -497 -9z m1242 -60 c10 -29 -1 -35 -25 -14 -25 23 -25
35 -1 35 11 0 23 -9 26 -21z m-87 -11 c13 -13 16 -38 5 -38 -5 0 -13 11 -20
25 -12 27 -5 33 15 13z"/>
</g>
</svg>
